<?xml version="1.0" standalone="no"?>
<!DOCTYPE svg PUBLIC "-//W3C//DTD SVG 20010904//EN"
 "http://www.w3.org/TR/2001/REC-SVG-20010904/DTD/svg10.dtd">
<svg version="1.0" xmlns="http://www.w3.org/2000/svg"
 width="128.000000pt" height="128.000000pt" viewBox="0 0 128.000000 128.000000"
 preserveAspectRatio="xMidYMid meet">

<g transform="translate(0.000000,128.000000) scale(0.100000,-0.100000)"
fill="#000000" stroke="none">
<path d="M63 1260 c-65 -39 -63 -23 -63 -622 0 -521 1 -544 20 -575 39 -65 23
-63 620 -63 597 0 581 -2 620 63 19 31 20 54 20 575 0 599 2 583 -63 622 -31
19 -54 20 -577 20 -523 0 -546 -1 -577 -20z m702 -249 c126 -58 154 -219 53
-305 l-39 -33 30 -6 c41 -9 107 -71 122 -114 7 -21 9 -63 6 -101 -6 -82 -41
-135 -112 -171 -46 -24 -60 -26 -221 -29 -170 -4 -171 -3 -200 21 l-29 25 -3
314 c-2 172 0 328 3 346 12 67 27 72 198 72 126 0 159 -4 192 -19z"/>
<path d="M540 805 l0 -85 44 0 c55 0 104 17 116 40 6 10 10 35 10 54 0 48 -43
76 -117 76 l-53 0 0 -85z"/>
<path d="M540 485 l0 -95 58 0 c119 1 171 30 172 96 0 64 -53 93 -172 94 l-58
0 0 -95z"/>
</g>
</svg>
